<svg width="24" height="24" xmlns="http://www.w3.org/2000/svg">
 <title/>

 <g>
  <title>background</title>
  <rect fill="none" id="canvas_background" height="402" width="582" y="-1" x="-1"/>
 </g>
 <g>
  <title>Layer 1</title>
  <path id="svg_1" fill="#ffffff" d="m21,1l-18,0a2,2 0 0 0 -2,2l0,18a2,2 0 0 0 2,2l7.5,0a0.5,0.5 0 0 0 0.5,-0.5l0,-7a0.5,0.5 0 0 0 -0.5,-0.5l-1,0a0.5,0.5 0 0 1 -0.5,-0.5l0,-3a0.5,0.5 0 0 1 0.5,-0.5l1,0a0.5,0.5 0 0 0 0.5,-0.5l0,-1a4.5,4.5 0 0 1 4.5,-4.5l3,0a0.5,0.5 0 0 1 0.5,0.5l0,3a0.5,0.5 0 0 1 -0.5,0.5l-3,0a0.5,0.5 0 0 0 -0.5,0.5l0,1a0.5,0.5 0 0 0 0.5,0.5l3,0a0.5,0.5 0 0 1 0.49,0.58l-0.5,3a0.5,0.5 0 0 1 -0.49,0.42l-2.5,0a0.5,0.5 0 0 0 -0.5,0.5l0,7a0.5,0.5 0 0 0 0.5,0.5l5.5,0a2,2 0 0 0 2,-2l0,-18a2,2 0 0 0 -2,-2z"/>
 </g>
</svg>