<svg width="27.999999999999996" height="24" xmlns="http://www.w3.org/2000/svg">
 <title/>

 <g>
  <title>background</title>
  <rect fill="none" id="canvas_background" height="26" width="30" y="-1" x="-1"/>
 </g>
 <g>
  <title>Layer 1</title>
  <path stroke="null" id="svg_1" fill="#ffffff" d="m27.673072,3.21709a0.576413,0.576413 0 0 0 -0.691696,-0.115283a5.487454,5.487454 0 0 1 -0.86462,0.311263a5.591209,5.591209 0 0 0 0.979903,-1.844522a0.576413,0.576413 0 0 0 -0.887676,-0.610998a12.208433,12.208433 0 0 1 -2.916651,1.152827a5.821774,5.821774 0 0 0 -4.115591,-1.694655a6.58264,6.58264 0 0 0 -3.45848,1.072129c-2.19037,1.233524 -2.570803,4.081006 -2.409407,5.844831a14.986745,14.986745 0 0 1 -10.375439,-5.487454a0.610998,0.610998 0 0 0 -0.472659,-0.276678a0.576413,0.576413 0 0 0 -0.461131,0.288207a6.167622,6.167622 0 0 0 0.253622,6.571111c-0.172924,-0.115283 -0.357376,-0.253622 -0.541828,-0.403489a0.576413,0.576413 0 0 0 -0.979903,0.461131a6.605696,6.605696 0 0 0 2.882066,5.349115l-0.449602,-0.126811a0.576413,0.576413 0 0 0 -0.703224,0.772394a7.470316,7.470316 0 0 0 4.830343,4.173232a10.629061,10.629061 0 0 1 -6.490413,1.360335a0.576413,0.576413 0 0 0 -0.357376,1.072129a17.522963,17.522963 0 0 0 8.934406,2.386351l0,0a15.390234,15.390234 0 0 0 11.528265,-5.337587a15.713026,15.713026 0 0 0 4.207817,-11.436039a11.309228,11.309228 0 0 0 2.616916,-2.824425a0.576413,0.576413 0 0 0 -0.057641,-0.657111zm-18.295357,19.678749z"/>
 </g>
</svg>