<svg width="26" height="24" xmlns="http://www.w3.org/2000/svg">
 <title/>

 <g>
  <title>background</title>
  <rect fill="none" id="canvas_background" height="26" width="28" y="-1" x="-1"/>
 </g>
 <g>
  <title>Layer 1</title>
  <path stroke="null" id="svg_1" fill="#ffffff" d="m23.648548,18.848079a0.53404,0.53404 0 0 0 -0.576763,-0.192254a41.986214,41.986214 0 0 1 -9.997226,1.580758c-4.902486,0 -10.520585,-1.666204 -11.909089,-3.044027a0.53404,0.53404 0 0 0 -0.779698,0.726294a17.751485,17.751485 0 0 0 12.688787,5.521972c7.839705,0 10.477862,-3.813045 10.595351,-3.973257a0.53404,0.53404 0 0 0 -0.021362,-0.619486z"/>
  <path stroke="null" id="svg_2" fill="#ffffff" d="m23.432843,16.706537a10.138501,10.138501 0 0 0 -3.181637,0.629204a0.593589,0.593589 0 0 0 0.427384,1.104076a8.986938,8.986938 0 0 1 2.754253,-0.546102c1.187178,0 1.187178,0.296795 1.187178,0.593589a7.348633,7.348633 0 0 1 -1.650178,3.193509a0.593589,0.593589 0 0 0 0.925999,0.747922c0.20182,-0.237436 1.911357,-2.374356 1.911357,-3.941431c0,-1.780767 -1.780767,-1.780767 -2.374356,-1.780767z"/>
  <path stroke="null" id="svg_3" fill="#ffffff" d="m6.183173,12.614904a4.134088,4.134088 0 0 0 4.363154,4.363154a5.999336,5.999336 0 0 0 4.363154,-1.363486a8.464518,8.464518 0 0 0 1.952511,1.363486a0.545394,0.545394 0 0 0 0.621749,-0.109079l2.181577,-2.181577a0.545394,0.545394 0 0 0 0.087263,-0.654473a7.820953,7.820953 0 0 1 -1.025341,-3.054208l0,-4.428601c0,-3.752312 -2.039774,-5.933889 -5.453942,-5.933889c-3.795944,0 -5.868442,1.527104 -6.544731,4.799469a0.545394,0.545394 0 0 0 0.458131,0.654473l3.272365,0.545394a0.534486,0.534486 0 0 0 0.632657,-0.425407c0.185434,-0.861723 0.665381,-1.210775 1.636183,-1.210775c0.730828,0 1.483472,0.20725 1.614367,1.679814a17.081747,17.081747 0 0 0 -5.126706,1.090788a4.995811,4.995811 0 0 0 -3.032392,4.864916zm5.999336,0.545394a0.970802,0.970802 0 0 1 -1.090788,-1.090788c0,-1.690722 1.963419,-2.083406 3.272365,-2.181577c-0.239973,2.399735 -1.821617,3.272365 -2.181577,3.272365z"/>
 </g>
</svg>