<?xml version="1.0" encoding="UTF-8"?>
<svg width="90px" height="90px" viewBox="0 0 90 90" version="1.1" xmlns="http://www.w3.org/2000/svg" xmlns:xlink="http://www.w3.org/1999/xlink">
    <!-- Generator: Sketch 64 (93537) - https://sketch.com -->
    <title>ir-icon-white</title>
    <desc>Created with Sketch.</desc>
    <g id="Page-1" stroke="none" stroke-width="1" fill="none" fill-rule="evenodd">
        <g id="ir-icon-white">
            <rect id="Rectangle" fill="#FFFFFF" x="0" y="0" width="90" height="90"></rect>
            <path d="M29.5036364,64.7509091 C27.6709091,64.7509091 26.1818182,63.2618182 26.1818182,61.4290909 L26.1818182,27.8672727 C26.1818182,26.0345455 27.6709091,24.5454545 29.5036364,24.5454545 C31.3363636,24.5454545 32.8827273,26.0345455 32.8827273,27.8672727 L32.8827273,61.4290909 C32.8827273,63.2618182 31.3363636,64.7509091 29.5036364,64.7509091 Z M56.88,52.1509091 L63.6381818,59.0809091 C64.8981818,60.4554545 64.8409091,62.5172727 63.5236364,63.8345455 C62.8936364,64.4645455 62.0345455,64.7509091 61.2327273,64.7509091 C60.3163636,64.7509091 59.4572727,64.4072727 58.8272727,63.72 L49.0909091,53.64 L42.6763636,53.64 L42.6763636,61.4290909 C42.6763636,63.2618182 41.1872727,64.7509091 39.3545455,64.7509091 C37.5218182,64.7509091 36.0327273,63.2618182 36.0327273,61.4290909 L36.0327273,27.8672727 C36.0327273,26.0345455 37.5218182,24.5454545 39.3545455,24.5454545 L50.5227273,24.5454545 C58.5409091,24.5454545 65.07,31.0745455 65.07,39.0927273 C65.07,44.82 61.7481818,49.8027273 56.88,52.1509091 Z M42.6763636,31.1890909 L42.6763636,46.9963636 L50.5227273,46.9963636 C54.8754545,46.9963636 58.3690909,43.4454545 58.3690909,39.0927273 C58.3690909,34.74 54.8754545,31.1890909 50.5227273,31.1890909 L42.6763636,31.1890909 Z" id="IR" fill="#000000" fill-rule="nonzero"></path>
        </g>
    </g>
</svg>