<svg width="240" height="42" viewBox="0 0 240 42" fill="none" xmlns="http://www.w3.org/2000/svg">
<path d="M6.76654 20.556V35.449C6.76654 36.774 6.76654 38.046 8.25054 38.046C8.35654 38.046 9.99954 37.887 10.1055 37.516L10.4765 36.138V33.064C10.4765 24.902 10.7945 16.793 10.7945 8.631C11.1655 8.631 13.0735 8.525 13.4445 8.525C14.1335 8.578 14.5045 8.949 15.1405 8.949C16.0415 8.949 16.8365 7.836 16.8365 6.935C16.8365 3.331 5.54754 3.914 5.54754 3.914C3.42754 3.914 0.0355352 3.225 0.0355352 6.193C0.0355352 6.723 0.0355352 7.306 0.406535 7.677C2.20854 8.101 3.74554 8.26 5.49454 8.26C6.02454 8.26 6.55454 8.26 7.13754 8.207C6.97854 9.638 6.97854 11.016 6.97854 12.447V15.998C6.97854 17.535 6.92554 19.072 6.76654 20.556ZM28.4191 39.742C30.3271 39.742 30.3271 39.106 30.3271 37.887V28.294C30.3271 25.326 29.7441 22.994 27.1471 21.457C26.6171 21.086 26.5111 20.927 25.8221 20.927C24.8151 20.927 23.7551 21.245 22.8541 21.722L22.6951 19.655V17.482C22.6951 16.104 22.3771 8.26 22.3771 6.246V4.497C22.3771 2.218 22.3771 0.257 20.3631 0.257C18.0841 0.257 18.8791 5.61 18.8791 7.094L18.9851 8.578C18.9851 17.27 19.4091 25.962 19.9391 34.654C20.0451 36.032 19.8331 38.788 21.4761 38.788C22.2181 38.788 23.7021 37.781 23.7021 36.986C23.7021 36.297 23.3841 35.608 23.3311 34.972L23.2781 34.442C23.1191 31.58 23.0131 28.824 23.0131 25.909C23.4371 24.849 24.7621 24.69 25.5571 24.584H25.7161C27.1471 26.757 26.8821 32.216 26.8821 34.654C26.8821 36.032 26.6171 39.742 28.4191 39.742ZM33.5228 26.015C33.5228 29.513 33.8408 39.848 39.8828 39.848C43.2218 39.848 44.3348 36.138 45.0768 33.753L45.1828 33.382C45.1828 33.329 45.2888 32.958 45.2888 32.905C45.1828 32.322 43.5928 31.951 43.1158 31.951C41.4728 31.951 40.9958 36.456 39.7768 36.456C39.0878 36.456 38.4518 35.396 38.3458 34.919L37.4978 31.209L37.1798 29.036L37.2328 27.128C37.6568 27.128 39.4588 27.234 39.8828 27.181C40.5718 27.181 43.9108 26.545 44.2818 26.121C45.1828 25.167 45.1828 23.206 45.1828 22.04C45.1828 19.549 43.4868 14.62 39.9358 14.62C34.6888 14.62 33.5228 22.464 33.5228 26.015ZM39.2998 18.012C39.3528 18.012 39.4588 17.959 39.5118 17.959C41.3668 17.959 41.6848 21.351 41.6848 22.464V23.153C40.8898 23.471 39.7768 23.365 38.9288 23.365H37.1798C37.6038 21.51 37.5508 19.284 39.2998 18.012ZM76.6487 36.244L76.7017 36.827C77.2847 39.106 76.7017 39.159 79.5107 39.159C81.6837 39.159 84.1217 17.8 84.7047 14.726C85.2347 12.023 85.9237 9.32 86.3477 6.511C86.3477 6.511 86.4007 6.299 86.4007 6.193C86.4007 5.345 85.9767 4.55 84.8107 4.55C82.5847 4.55 82.3727 8.207 81.9487 10.804C80.8357 17.164 79.9347 24.531 78.9277 30.626C76.5957 17.853 76.0127 13.931 74.6877 8.472C74.3697 6.299 73.8927 5.292 72.3027 5.292C71.7197 5.292 71.3487 5.769 71.0837 6.193C70.2887 11.016 69.4407 15.733 68.7517 20.503L68.5927 20.927L67.7447 25.326C67.7447 25.485 67.6917 25.697 67.5327 25.856C67.5327 25.75 67.4797 25.432 67.4797 25.326C66.9497 22.676 66.6847 20.291 66.2607 17.376L64.6177 6.352C64.1407 5.186 65.0947 3.543 62.3917 3.543C61.4907 3.543 61.0137 4.391 60.6957 5.663C60.6957 5.716 60.8547 6.14 60.8547 6.193C62.3917 15.415 63.3457 23.842 65.3067 34.177V35.237C65.3067 35.608 65.9427 37.516 66.5257 37.516C69.9707 37.516 69.5997 33.965 70.2357 31.156C70.2887 30.838 70.3947 30.679 70.3947 30.467C70.3947 30.414 70.3417 30.361 70.3417 30.255L71.2427 25.326C71.1897 25.114 71.1897 25.008 71.1897 24.955C71.1897 24.796 71.2957 24.902 71.4017 24.478C71.7727 21.881 72.2497 18.224 72.7797 15.998L76.6487 36.244ZM95.9531 36.668C96.1121 36.933 96.1651 37.357 96.1651 37.728C96.1651 38.205 96.1121 38.576 96.1121 38.841C96.1121 39.424 97.3841 39.848 97.5961 39.848C97.9141 39.848 98.9741 39.636 99.0801 39.318C100.034 36.297 99.8221 32.958 99.8221 29.99V29.142C99.8221 22.517 99.8751 13.242 91.0241 13.242H90.7591C89.6461 13.242 88.0031 13.189 88.0031 14.832C88.0031 17.482 91.3951 17.111 93.7801 17.8C95.2641 18.224 95.9531 20.662 95.6881 25.008C94.7871 25.114 92.8261 25.008 91.9251 25.326C88.7451 26.545 86.6781 28.241 86.6781 31.792C86.6781 34.548 89.3281 36.88 91.9781 36.88C93.3031 36.88 94.5221 36.668 95.9531 36.668ZM90.8651 33.064C90.4411 32.587 90.1761 32.11 90.1761 31.474C90.1761 28.877 94.2041 28.612 95.9531 28.612V32.852C95.9531 33.223 94.6281 33.223 94.0981 33.223H93.9921C92.8261 33.223 91.4481 33.064 91.0771 33.064H90.8651ZM103.511 33.17C104.253 36.509 105.737 40.166 109.712 40.166C111.408 40.166 113.899 39.954 113.899 37.675V37.516C113.475 36.986 112.627 35.979 111.832 35.979C111.196 35.979 110.666 36.35 109.977 36.35C107.115 36.35 107.009 30.255 107.009 28.612C107.009 25.485 107.592 22.199 110.03 20.132C111.779 18.701 113.21 20.185 113.21 17.217C113.21 16.21 111.885 16.104 111.09 16.104C105.101 16.104 103.034 23.895 103.034 28.718C103.034 28.824 103.299 33.117 103.511 33.17ZM115.871 38.205C115.977 39.212 116.401 39.318 117.302 39.318C117.938 39.318 118.998 39.212 119.369 38.576C119.581 36.827 119.634 34.707 119.634 32.693C119.634 31.368 119.528 30.096 119.528 29.036C119.528 28.347 120.005 27.711 120.641 27.499C122.284 29.937 123.45 32.799 125.093 35.237C125.623 36.085 125.994 38.046 127.16 38.046C128.061 38.046 129.068 37.569 129.068 36.615C129.068 35.343 128.008 34.389 127.743 33.117C127.372 32.269 125.305 27.976 124.828 27.075C124.139 25.856 123.079 24.425 123.132 24.372C123.132 23.842 125.517 21.192 126.206 20.291L127.849 18.277C128.379 17.535 130.075 15.574 130.075 14.991C130.075 13.772 128.485 13.719 127.425 13.719C124.51 16.634 122.019 20.238 119.528 23.577L119.581 3.702L119.369 2.059C119.263 1.264 117.408 1.158 117.037 1.158C115.818 1.158 115.818 5.504 115.818 6.988V7.412L115.871 38.205ZM140.413 36.668C140.572 36.933 140.625 37.357 140.625 37.728C140.625 38.205 140.572 38.576 140.572 38.841C140.572 39.424 141.844 39.848 142.056 39.848C142.374 39.848 143.434 39.636 143.54 39.318C144.494 36.297 144.282 32.958 144.282 29.99V29.142C144.282 22.517 144.335 13.242 135.484 13.242H135.219C134.106 13.242 132.463 13.189 132.463 14.832C132.463 17.482 135.855 17.111 138.24 17.8C139.724 18.224 140.413 20.662 140.148 25.008C139.247 25.114 137.286 25.008 136.385 25.326C133.205 26.545 131.138 28.241 131.138 31.792C131.138 34.548 133.788 36.88 136.438 36.88C137.763 36.88 138.982 36.668 140.413 36.668ZM135.325 33.064C134.901 32.587 134.636 32.11 134.636 31.474C134.636 28.877 138.664 28.612 140.413 28.612V32.852C140.413 33.223 139.088 33.223 138.558 33.223H138.452C137.286 33.223 135.908 33.064 135.537 33.064H135.325ZM156.133 38.311C156.716 39 156.186 40.007 156.504 40.908C156.61 41.173 156.928 41.862 156.981 41.862H159.048C159.207 41.862 159.843 41.491 159.949 41.332C160.002 41.332 160.108 40.537 160.161 40.219V40.007C160.161 34.866 159.419 29.778 159.419 24.637V24.001C159.419 18.648 158.889 12.659 158.73 7.412C158.73 6.882 158.677 4.073 158.412 4.073C155.656 4.073 155.444 4.709 155.391 4.868C155.232 6.034 155.126 7.412 155.126 8.578V10.698C155.126 13.984 155.285 17.005 155.232 20.344C155.232 20.45 155.391 21.245 155.391 21.404V21.722C155.391 21.934 155.391 22.04 155.232 22.252C154.278 22.305 152.529 22.252 151.575 22.888C148.819 24.796 147.494 27.923 147.494 31.262C147.494 35.767 150.25 38.47 154.649 38.47C155.232 38.47 155.603 38.47 156.133 38.311ZM151.31 31.739C151.31 29.566 152.105 25.962 154.861 25.962C155.709 25.962 155.55 26.704 155.603 27.393C155.603 27.658 155.868 30.255 155.868 30.573C155.868 30.679 155.921 31.898 155.921 32.322C155.921 32.64 155.868 33.859 155.868 34.177C155.868 34.336 154.225 34.442 153.96 34.442C152.582 34.442 151.31 33.064 151.31 31.739ZM162.407 33.541C163.255 36.085 164.686 39.265 167.866 39.265C172 39.265 174.014 29.142 174.014 24.001C174.014 20.026 172.583 16.581 168.184 16.581C167.018 16.581 165.799 17.588 165.057 18.436C162.301 21.563 162.089 25.909 162.089 29.937C162.089 30.944 162.407 32.004 162.407 33.064V33.541ZM166.117 29.46C166.117 27.764 166.223 20.132 168.661 20.132C170.463 20.132 170.463 23.683 170.463 24.849V25.22C170.039 27.658 170.304 30.202 169.35 32.428C169.244 32.958 168.343 35.396 167.707 35.396C166.329 35.396 166.117 30.043 166.117 29.46ZM177.521 33.541C178.369 36.085 179.8 39.265 182.98 39.265C187.114 39.265 189.128 29.142 189.128 24.001C189.128 20.026 187.697 16.581 183.298 16.581C182.132 16.581 180.913 17.588 180.171 18.436C177.415 21.563 177.203 25.909 177.203 29.937C177.203 30.944 177.521 32.004 177.521 33.064V33.541ZM181.231 29.46C181.231 27.764 181.337 20.132 183.775 20.132C185.577 20.132 185.577 23.683 185.577 24.849V25.22C185.153 27.658 185.418 30.202 184.464 32.428C184.358 32.958 183.457 35.396 182.821 35.396C181.443 35.396 181.231 30.043 181.231 29.46ZM200.127 38.311C200.71 39 200.18 40.007 200.498 40.908C200.604 41.173 200.922 41.862 200.975 41.862H203.042C203.201 41.862 203.837 41.491 203.943 41.332C203.996 41.332 204.102 40.537 204.155 40.219V40.007C204.155 34.866 203.413 29.778 203.413 24.637V24.001C203.413 18.648 202.883 12.659 202.724 7.412C202.724 6.882 202.671 4.073 202.406 4.073C199.65 4.073 199.438 4.709 199.385 4.868C199.226 6.034 199.12 7.412 199.12 8.578V10.698C199.12 13.984 199.279 17.005 199.226 20.344C199.226 20.45 199.385 21.245 199.385 21.404V21.722C199.385 21.934 199.385 22.04 199.226 22.252C198.272 22.305 196.523 22.252 195.569 22.888C192.813 24.796 191.488 27.923 191.488 31.262C191.488 35.767 194.244 38.47 198.643 38.47C199.226 38.47 199.597 38.47 200.127 38.311ZM195.304 31.739C195.304 29.566 196.099 25.962 198.855 25.962C199.703 25.962 199.544 26.704 199.597 27.393C199.597 27.658 199.862 30.255 199.862 30.573C199.862 30.679 199.915 31.898 199.915 32.322C199.915 32.64 199.862 33.859 199.862 34.177C199.862 34.336 198.219 34.442 197.954 34.442C196.576 34.442 195.304 33.064 195.304 31.739ZM207.326 33.382C207.485 34.495 207.061 38.735 208.704 38.735C209.552 38.735 210.453 38.311 211.089 37.834C211.354 29.407 211.725 16.634 211.725 9.161C211.725 6.723 211.672 4.285 211.301 1.9C211.036 1.37 209.817 1.317 209.446 1.317H209.287C208.863 1.317 208.28 2.006 208.015 2.377L207.326 33.382ZM214.882 26.015C214.882 29.513 215.2 39.848 221.242 39.848C224.581 39.848 225.694 36.138 226.436 33.753L226.542 33.382C226.542 33.329 226.648 32.958 226.648 32.905C226.542 32.322 224.952 31.951 224.475 31.951C222.832 31.951 222.355 36.456 221.136 36.456C220.447 36.456 219.811 35.396 219.705 34.919L218.857 31.209L218.539 29.036L218.592 27.128C219.016 27.128 220.818 27.234 221.242 27.181C221.931 27.181 225.27 26.545 225.641 26.121C226.542 25.167 226.542 23.206 226.542 22.04C226.542 19.549 224.846 14.62 221.295 14.62C216.048 14.62 214.882 22.464 214.882 26.015ZM220.659 18.012C220.712 18.012 220.818 17.959 220.871 17.959C222.726 17.959 223.044 21.351 223.044 22.464V23.153C222.249 23.471 221.136 23.365 220.288 23.365H218.539C218.963 21.51 218.91 19.284 220.659 18.012ZM228.598 34.177C228.598 34.866 228.651 34.972 229.022 35.714C229.022 35.767 229.075 35.767 229.075 35.767C230.135 37.834 231.301 39.795 233.686 39.795C236.919 39.795 238.509 37.145 238.509 34.018C238.509 30.467 236.866 27.658 235.223 24.796L234.958 24.372L234.693 24.001C234.375 23.471 234.428 23.206 234.428 22.729C234.428 21.722 234.958 20.821 235.965 20.821C236.813 20.821 237.343 21.669 238.085 21.669C239.092 21.669 239.834 20.768 239.834 19.708C239.834 17.959 236.654 16.793 235.276 16.899C231.937 17.164 230.453 20.874 230.453 23.1C230.453 26.969 234.693 29.937 234.693 34.442C234.693 35.29 234.534 35.82 233.739 35.82C232.202 35.82 231.407 32.958 231.195 32.852H231.036C230.4 32.799 228.598 32.746 228.598 34.177Z" fill="#FCB017"/>
</svg>
