<svg width="348" height="42" viewBox="0 0 348 42" fill="none" xmlns="http://www.w3.org/2000/svg">
<path d="M16.6262 36.244L16.6792 36.827C17.2622 39.106 16.6792 39.159 19.4882 39.159C21.6612 39.159 24.0992 17.8 24.6822 14.726C25.2122 12.023 25.9012 9.32 26.3252 6.511C26.3252 6.511 26.3782 6.299 26.3782 6.193C26.3782 5.345 25.9542 4.55 24.7882 4.55C22.5622 4.55 22.3502 8.207 21.9262 10.804C20.8132 17.164 19.9122 24.531 18.9052 30.626C16.5732 17.853 15.9902 13.931 14.6652 8.472C14.3472 6.299 13.8702 5.292 12.2802 5.292C11.6972 5.292 11.3262 5.769 11.0612 6.193C10.2662 11.016 9.41823 15.733 8.72923 20.503L8.57023 20.927L7.72223 25.326C7.72223 25.485 7.66923 25.697 7.51023 25.856C7.51023 25.75 7.45723 25.432 7.45723 25.326C6.92723 22.676 6.66223 20.291 6.23823 17.376L4.59523 6.352C4.11823 5.186 5.07223 3.543 2.36923 3.543C1.46823 3.543 0.99123 4.391 0.673231 5.663C0.673231 5.716 0.832231 6.14 0.832231 6.193C2.36923 15.415 3.32323 23.842 5.28423 34.177V35.237C5.28423 35.608 5.92023 37.516 6.50323 37.516C9.94823 37.516 9.57723 33.965 10.2132 31.156C10.2662 30.838 10.3722 30.679 10.3722 30.467C10.3722 30.414 10.3192 30.361 10.3192 30.255L11.2202 25.326C11.1672 25.114 11.1672 25.008 11.1672 24.955C11.1672 24.796 11.2732 24.902 11.3792 24.478C11.7502 21.881 12.2272 18.224 12.7572 15.998L16.6262 36.244ZM25.8275 26.015C25.8275 29.513 26.1455 39.848 32.1875 39.848C35.5265 39.848 36.6395 36.138 37.3815 33.753L37.4875 33.382C37.4875 33.329 37.5935 32.958 37.5935 32.905C37.4875 32.322 35.8975 31.951 35.4205 31.951C33.7775 31.951 33.3005 36.456 32.0815 36.456C31.3925 36.456 30.7565 35.396 30.6505 34.919L29.8025 31.209L29.4845 29.036L29.5375 27.128C29.9615 27.128 31.7635 27.234 32.1875 27.181C32.8765 27.181 36.2155 26.545 36.5865 26.121C37.4875 25.167 37.4875 23.206 37.4875 22.04C37.4875 19.549 35.7915 14.62 32.2405 14.62C26.9935 14.62 25.8275 22.464 25.8275 26.015ZM31.6045 18.012C31.6575 18.012 31.7635 17.959 31.8165 17.959C33.6715 17.959 33.9895 21.351 33.9895 22.464V23.153C33.1945 23.471 32.0815 23.365 31.2335 23.365H29.4845C29.9085 21.51 29.8555 19.284 31.6045 18.012ZM62.2754 36.668C62.4344 36.933 62.4874 37.357 62.4874 37.728C62.4874 38.205 62.4344 38.576 62.4344 38.841C62.4344 39.424 63.7064 39.848 63.9184 39.848C64.2364 39.848 65.2964 39.636 65.4024 39.318C66.3564 36.297 66.1444 32.958 66.1444 29.99V29.142C66.1444 22.517 66.1974 13.242 57.3464 13.242H57.0814C55.9684 13.242 54.3254 13.189 54.3254 14.832C54.3254 17.482 57.7174 17.111 60.1024 17.8C61.5864 18.224 62.2754 20.662 62.0104 25.008C61.1094 25.114 59.1484 25.008 58.2474 25.326C55.0674 26.545 53.0004 28.241 53.0004 31.792C53.0004 34.548 55.6504 36.88 58.3004 36.88C59.6254 36.88 60.8444 36.668 62.2754 36.668ZM57.1874 33.064C56.7634 32.587 56.4984 32.11 56.4984 31.474C56.4984 28.877 60.5264 28.612 62.2754 28.612V32.852C62.2754 33.223 60.9504 33.223 60.4204 33.223H60.3144C59.1484 33.223 57.7704 33.064 57.3994 33.064H57.1874ZM69.4088 24.107C69.4088 27.87 69.8858 31.474 69.8858 35.184C69.8858 36.403 70.0448 38.311 71.5818 38.311C74.0198 38.311 73.3838 35.396 73.3838 32.905C73.3838 32.375 73.2248 28.612 73.2248 28.082C73.2248 25.008 74.6558 22.04 77.0408 22.04C77.8358 22.04 77.9948 24.743 79.3728 24.743C80.2208 24.743 81.4398 23.895 81.4398 22.994C81.4398 20.662 80.0088 18.383 77.2528 18.383C76.0338 18.383 74.0198 19.231 73.2248 20.291C72.9068 19.92 72.8538 19.443 72.8538 18.966L72.9068 18.489C72.9068 17.588 72.7478 16.793 71.1048 16.793C69.6208 16.793 69.3558 20.079 69.3558 22.305L69.4088 24.107ZM83.848 26.015C83.848 29.513 84.166 39.848 90.208 39.848C93.547 39.848 94.66 36.138 95.402 33.753L95.508 33.382C95.508 33.329 95.614 32.958 95.614 32.905C95.508 32.322 93.918 31.951 93.441 31.951C91.798 31.951 91.321 36.456 90.102 36.456C89.413 36.456 88.777 35.396 88.671 34.919L87.823 31.209L87.505 29.036L87.558 27.128C87.982 27.128 89.784 27.234 90.208 27.181C90.897 27.181 94.236 26.545 94.607 26.121C95.508 25.167 95.508 23.206 95.508 22.04C95.508 19.549 93.812 14.62 90.261 14.62C85.014 14.62 83.848 22.464 83.848 26.015ZM89.625 18.012C89.678 18.012 89.784 17.959 89.837 17.959C91.692 17.959 92.01 21.351 92.01 22.464V23.153C91.215 23.471 90.102 23.365 89.254 23.365H87.505C87.929 21.51 87.876 19.284 89.625 18.012ZM115.208 38.894V39.159C115.208 40.484 115.208 41.491 116.639 41.491C118.971 41.491 119.024 41.014 119.077 39C119.024 34.601 119.077 31.527 119.077 29.089C119.077 25.644 119.024 23.524 118.971 20.715H121.992C122.628 19.655 122.893 18.913 122.893 18.33C122.893 17.164 121.727 16.899 120.508 16.899C120.137 16.899 119.766 16.952 119.395 16.952C119.236 16.793 119.289 16.528 119.183 16.369L118.971 8.154C118.918 5.981 115.42 6.405 115.367 7.518L115.261 9.161C115.155 10.592 115.155 10.645 115.155 15.786C115.155 16.157 115.155 16.581 115.208 16.952C114.519 17.111 113.671 17.164 112.876 17.164C112.505 17.164 112.134 17.111 111.816 17.111C111.233 17.164 111.021 18.595 111.021 19.019C111.021 21.722 115.049 19.761 115.049 21.616L115.208 38.894ZM135.781 39.742C137.689 39.742 137.689 39.106 137.689 37.887V28.294C137.689 25.326 137.106 22.994 134.509 21.457C133.979 21.086 133.873 20.927 133.184 20.927C132.177 20.927 131.117 21.245 130.216 21.722L130.057 19.655V17.482C130.057 16.104 129.739 8.26 129.739 6.246V4.497C129.739 2.218 129.739 0.257 127.725 0.257C125.446 0.257 126.241 5.61 126.241 7.094L126.347 8.578C126.347 17.27 126.771 25.962 127.301 34.654C127.407 36.032 127.195 38.788 128.838 38.788C129.58 38.788 131.064 37.781 131.064 36.986C131.064 36.297 130.746 35.608 130.693 34.972L130.64 34.442C130.481 31.58 130.375 28.824 130.375 25.909C130.799 24.849 132.124 24.69 132.919 24.584H133.078C134.509 26.757 134.244 32.216 134.244 34.654C134.244 36.032 133.979 39.742 135.781 39.742ZM140.885 26.015C140.885 29.513 141.203 39.848 147.245 39.848C150.584 39.848 151.697 36.138 152.439 33.753L152.545 33.382C152.545 33.329 152.651 32.958 152.651 32.905C152.545 32.322 150.955 31.951 150.478 31.951C148.835 31.951 148.358 36.456 147.139 36.456C146.45 36.456 145.814 35.396 145.708 34.919L144.86 31.209L144.542 29.036L144.595 27.128C145.019 27.128 146.821 27.234 147.245 27.181C147.934 27.181 151.273 26.545 151.644 26.121C152.545 25.167 152.545 23.206 152.545 22.04C152.545 19.549 150.849 14.62 147.298 14.62C142.051 14.62 140.885 22.464 140.885 26.015ZM146.662 18.012C146.715 18.012 146.821 17.959 146.874 17.959C148.729 17.959 149.047 21.351 149.047 22.464V23.153C148.252 23.471 147.139 23.365 146.291 23.365H144.542C144.966 21.51 144.913 19.284 146.662 18.012ZM184.011 36.244L184.064 36.827C184.647 39.106 184.064 39.159 186.873 39.159C189.046 39.159 191.484 17.8 192.067 14.726C192.597 12.023 193.286 9.32 193.71 6.511C193.71 6.511 193.763 6.299 193.763 6.193C193.763 5.345 193.339 4.55 192.173 4.55C189.947 4.55 189.735 8.207 189.311 10.804C188.198 17.164 187.297 24.531 186.29 30.626C183.958 17.853 183.375 13.931 182.05 8.472C181.732 6.299 181.255 5.292 179.665 5.292C179.082 5.292 178.711 5.769 178.446 6.193C177.651 11.016 176.803 15.733 176.114 20.503L175.955 20.927L175.107 25.326C175.107 25.485 175.054 25.697 174.895 25.856C174.895 25.75 174.842 25.432 174.842 25.326C174.312 22.676 174.047 20.291 173.623 17.376L171.98 6.352C171.503 5.186 172.457 3.543 169.754 3.543C168.853 3.543 168.376 4.391 168.058 5.663C168.058 5.716 168.217 6.14 168.217 6.193C169.754 15.415 170.708 23.842 172.669 34.177V35.237C172.669 35.608 173.305 37.516 173.888 37.516C177.333 37.516 176.962 33.965 177.598 31.156C177.651 30.838 177.757 30.679 177.757 30.467C177.757 30.414 177.704 30.361 177.704 30.255L178.605 25.326C178.552 25.114 178.552 25.008 178.552 24.955C178.552 24.796 178.658 24.902 178.764 24.478C179.135 21.881 179.612 18.224 180.142 15.998L184.011 36.244ZM203.315 36.668C203.474 36.933 203.527 37.357 203.527 37.728C203.527 38.205 203.474 38.576 203.474 38.841C203.474 39.424 204.746 39.848 204.958 39.848C205.276 39.848 206.336 39.636 206.442 39.318C207.396 36.297 207.184 32.958 207.184 29.99V29.142C207.184 22.517 207.237 13.242 198.386 13.242H198.121C197.008 13.242 195.365 13.189 195.365 14.832C195.365 17.482 198.757 17.111 201.142 17.8C202.626 18.224 203.315 20.662 203.05 25.008C202.149 25.114 200.188 25.008 199.287 25.326C196.107 26.545 194.04 28.241 194.04 31.792C194.04 34.548 196.69 36.88 199.34 36.88C200.665 36.88 201.884 36.668 203.315 36.668ZM198.227 33.064C197.803 32.587 197.538 32.11 197.538 31.474C197.538 28.877 201.566 28.612 203.315 28.612V32.852C203.315 33.223 201.99 33.223 201.46 33.223H201.354C200.188 33.223 198.81 33.064 198.439 33.064H198.227ZM210.873 33.17C211.615 36.509 213.099 40.166 217.074 40.166C218.77 40.166 221.261 39.954 221.261 37.675V37.516C220.837 36.986 219.989 35.979 219.194 35.979C218.558 35.979 218.028 36.35 217.339 36.35C214.477 36.35 214.371 30.255 214.371 28.612C214.371 25.485 214.954 22.199 217.392 20.132C219.141 18.701 220.572 20.185 220.572 17.217C220.572 16.21 219.247 16.104 218.452 16.104C212.463 16.104 210.396 23.895 210.396 28.718C210.396 28.824 210.661 33.117 210.873 33.17ZM223.233 38.205C223.339 39.212 223.763 39.318 224.664 39.318C225.3 39.318 226.36 39.212 226.731 38.576C226.943 36.827 226.996 34.707 226.996 32.693C226.996 31.368 226.89 30.096 226.89 29.036C226.89 28.347 227.367 27.711 228.003 27.499C229.646 29.937 230.812 32.799 232.455 35.237C232.985 36.085 233.356 38.046 234.522 38.046C235.423 38.046 236.43 37.569 236.43 36.615C236.43 35.343 235.37 34.389 235.105 33.117C234.734 32.269 232.667 27.976 232.19 27.075C231.501 25.856 230.441 24.425 230.494 24.372C230.494 23.842 232.879 21.192 233.568 20.291L235.211 18.277C235.741 17.535 237.437 15.574 237.437 14.991C237.437 13.772 235.847 13.719 234.787 13.719C231.872 16.634 229.381 20.238 226.89 23.577L226.943 3.702L226.731 2.059C226.625 1.264 224.77 1.158 224.399 1.158C223.18 1.158 223.18 5.504 223.18 6.988V7.412L223.233 38.205ZM247.775 36.668C247.934 36.933 247.987 37.357 247.987 37.728C247.987 38.205 247.934 38.576 247.934 38.841C247.934 39.424 249.206 39.848 249.418 39.848C249.736 39.848 250.796 39.636 250.902 39.318C251.856 36.297 251.644 32.958 251.644 29.99V29.142C251.644 22.517 251.697 13.242 242.846 13.242H242.581C241.468 13.242 239.825 13.189 239.825 14.832C239.825 17.482 243.217 17.111 245.602 17.8C247.086 18.224 247.775 20.662 247.51 25.008C246.609 25.114 244.648 25.008 243.747 25.326C240.567 26.545 238.5 28.241 238.5 31.792C238.5 34.548 241.15 36.88 243.8 36.88C245.125 36.88 246.344 36.668 247.775 36.668ZM242.687 33.064C242.263 32.587 241.998 32.11 241.998 31.474C241.998 28.877 246.026 28.612 247.775 28.612V32.852C247.775 33.223 246.45 33.223 245.92 33.223H245.814C244.648 33.223 243.27 33.064 242.899 33.064H242.687ZM263.495 38.311C264.078 39 263.548 40.007 263.866 40.908C263.972 41.173 264.29 41.862 264.343 41.862H266.41C266.569 41.862 267.205 41.491 267.311 41.332C267.364 41.332 267.47 40.537 267.523 40.219V40.007C267.523 34.866 266.781 29.778 266.781 24.637V24.001C266.781 18.648 266.251 12.659 266.092 7.412C266.092 6.882 266.039 4.073 265.774 4.073C263.018 4.073 262.806 4.709 262.753 4.868C262.594 6.034 262.488 7.412 262.488 8.578V10.698C262.488 13.984 262.647 17.005 262.594 20.344C262.594 20.45 262.753 21.245 262.753 21.404V21.722C262.753 21.934 262.753 22.04 262.594 22.252C261.64 22.305 259.891 22.252 258.937 22.888C256.181 24.796 254.856 27.923 254.856 31.262C254.856 35.767 257.612 38.47 262.011 38.47C262.594 38.47 262.965 38.47 263.495 38.311ZM258.672 31.739C258.672 29.566 259.467 25.962 262.223 25.962C263.071 25.962 262.912 26.704 262.965 27.393C262.965 27.658 263.23 30.255 263.23 30.573C263.23 30.679 263.283 31.898 263.283 32.322C263.283 32.64 263.23 33.859 263.23 34.177C263.23 34.336 261.587 34.442 261.322 34.442C259.944 34.442 258.672 33.064 258.672 31.739ZM269.77 33.541C270.618 36.085 272.049 39.265 275.229 39.265C279.363 39.265 281.377 29.142 281.377 24.001C281.377 20.026 279.946 16.581 275.547 16.581C274.381 16.581 273.162 17.588 272.42 18.436C269.664 21.563 269.452 25.909 269.452 29.937C269.452 30.944 269.77 32.004 269.77 33.064V33.541ZM273.48 29.46C273.48 27.764 273.586 20.132 276.024 20.132C277.826 20.132 277.826 23.683 277.826 24.849V25.22C277.402 27.658 277.667 30.202 276.713 32.428C276.607 32.958 275.706 35.396 275.07 35.396C273.692 35.396 273.48 30.043 273.48 29.46ZM284.883 33.541C285.731 36.085 287.162 39.265 290.342 39.265C294.476 39.265 296.49 29.142 296.49 24.001C296.49 20.026 295.059 16.581 290.66 16.581C289.494 16.581 288.275 17.588 287.533 18.436C284.777 21.563 284.565 25.909 284.565 29.937C284.565 30.944 284.883 32.004 284.883 33.064V33.541ZM288.593 29.46C288.593 27.764 288.699 20.132 291.137 20.132C292.939 20.132 292.939 23.683 292.939 24.849V25.22C292.515 27.658 292.78 30.202 291.826 32.428C291.72 32.958 290.819 35.396 290.183 35.396C288.805 35.396 288.593 30.043 288.593 29.46ZM307.489 38.311C308.072 39 307.542 40.007 307.86 40.908C307.966 41.173 308.284 41.862 308.337 41.862H310.404C310.563 41.862 311.199 41.491 311.305 41.332C311.358 41.332 311.464 40.537 311.517 40.219V40.007C311.517 34.866 310.775 29.778 310.775 24.637V24.001C310.775 18.648 310.245 12.659 310.086 7.412C310.086 6.882 310.033 4.073 309.768 4.073C307.012 4.073 306.8 4.709 306.747 4.868C306.588 6.034 306.482 7.412 306.482 8.578V10.698C306.482 13.984 306.641 17.005 306.588 20.344C306.588 20.45 306.747 21.245 306.747 21.404V21.722C306.747 21.934 306.747 22.04 306.588 22.252C305.634 22.305 303.885 22.252 302.931 22.888C300.175 24.796 298.85 27.923 298.85 31.262C298.85 35.767 301.606 38.47 306.005 38.47C306.588 38.47 306.959 38.47 307.489 38.311ZM302.666 31.739C302.666 29.566 303.461 25.962 306.217 25.962C307.065 25.962 306.906 26.704 306.959 27.393C306.959 27.658 307.224 30.255 307.224 30.573C307.224 30.679 307.277 31.898 307.277 32.322C307.277 32.64 307.224 33.859 307.224 34.177C307.224 34.336 305.581 34.442 305.316 34.442C303.938 34.442 302.666 33.064 302.666 31.739ZM314.688 33.382C314.847 34.495 314.423 38.735 316.066 38.735C316.914 38.735 317.815 38.311 318.451 37.834C318.716 29.407 319.087 16.634 319.087 9.161C319.087 6.723 319.034 4.285 318.663 1.9C318.398 1.37 317.179 1.317 316.808 1.317H316.649C316.225 1.317 315.642 2.006 315.377 2.377L314.688 33.382ZM322.245 26.015C322.245 29.513 322.563 39.848 328.605 39.848C331.944 39.848 333.057 36.138 333.799 33.753L333.905 33.382C333.905 33.329 334.011 32.958 334.011 32.905C333.905 32.322 332.315 31.951 331.838 31.951C330.195 31.951 329.718 36.456 328.499 36.456C327.81 36.456 327.174 35.396 327.068 34.919L326.22 31.209L325.902 29.036L325.955 27.128C326.379 27.128 328.181 27.234 328.605 27.181C329.294 27.181 332.633 26.545 333.004 26.121C333.905 25.167 333.905 23.206 333.905 22.04C333.905 19.549 332.209 14.62 328.658 14.62C323.411 14.62 322.245 22.464 322.245 26.015ZM328.022 18.012C328.075 18.012 328.181 17.959 328.234 17.959C330.089 17.959 330.407 21.351 330.407 22.464V23.153C329.612 23.471 328.499 23.365 327.651 23.365H325.902C326.326 21.51 326.273 19.284 328.022 18.012ZM335.96 34.177C335.96 34.866 336.013 34.972 336.384 35.714C336.384 35.767 336.437 35.767 336.437 35.767C337.497 37.834 338.663 39.795 341.048 39.795C344.281 39.795 345.871 37.145 345.871 34.018C345.871 30.467 344.228 27.658 342.585 24.796L342.32 24.372L342.055 24.001C341.737 23.471 341.79 23.206 341.79 22.729C341.79 21.722 342.32 20.821 343.327 20.821C344.175 20.821 344.705 21.669 345.447 21.669C346.454 21.669 347.196 20.768 347.196 19.708C347.196 17.959 344.016 16.793 342.638 16.899C339.299 17.164 337.815 20.874 337.815 23.1C337.815 26.969 342.055 29.937 342.055 34.442C342.055 35.29 341.896 35.82 341.101 35.82C339.564 35.82 338.769 32.958 338.557 32.852H338.398C337.762 32.799 335.96 32.746 335.96 34.177Z" fill="#FCB017"/>
</svg>
